<svg width="25" height="25" viewBox="0 0 25 25" fill="none" xmlns="http://www.w3.org/2000/svg">
<path d="M6.8126 5.19577C6.8751 6.12062 7.03135 7.02468 7.28135 7.88718L6.03135 9.13416C5.60427 7.88718 5.33343 6.56746 5.23968 5.19577H6.8126ZM17.0835 17.6864C17.9689 17.9358 18.8751 18.0917 19.7918 18.154V19.7023C18.4168 19.6088 17.0939 19.3386 15.8335 18.923L17.0835 17.6864ZM7.8126 3.11747H4.16676C3.59384 3.11747 3.12509 3.58509 3.12509 4.15662C3.12509 13.9143 11.0522 21.8222 20.8335 21.8222C21.4064 21.8222 21.8751 21.3546 21.8751 20.7831V17.1564C21.8751 16.5849 21.4064 16.1173 20.8335 16.1173C19.5418 16.1173 18.2814 15.9094 17.1147 15.5249C17.0105 15.4834 16.896 15.473 16.7918 15.473C16.521 15.473 16.2605 15.5769 16.0522 15.7743L13.7605 18.0605C10.8126 16.5537 8.39594 14.1533 6.89594 11.2125L9.18761 8.92633C9.47928 8.63537 9.56261 8.2301 9.44803 7.8664C9.06261 6.70255 8.85427 5.45556 8.85427 4.15662C8.85427 3.58509 8.38552 3.11747 7.8126 3.11747Z" fill="black"/>
</svg>
