<svg width="22" height="21" viewBox="0 0 22 21" fill="none" xmlns="http://www.w3.org/2000/svg">
<g clip-path="url(#clip0_683_18873)">
<path d="M11 20.185L9.405 18.755C7.55333 17.0867 6.0225 15.6475 4.8125 14.4375C3.6025 13.2275 2.64 12.1413 1.925 11.1788C1.21 10.2163 0.710417 9.33167 0.42625 8.525C0.142083 7.71833 0 6.89333 0 6.05C0 4.32667 0.5775 2.8875 1.7325 1.7325C2.8875 0.5775 4.32667 0 6.05 0C7.00333 0 7.91083 0.201667 8.7725 0.605C9.63417 1.00833 10.3767 1.57667 11 2.31C11.6233 1.57667 12.3658 1.00833 13.2275 0.605C14.0892 0.201667 14.9967 0 15.95 0C17.6733 0 19.1125 0.5775 20.2675 1.7325C21.4225 2.8875 22 4.32667 22 6.05C22 6.89333 21.8579 7.71833 21.5738 8.525C21.2896 9.33167 20.79 10.2163 20.075 11.1788C19.36 12.1413 18.3975 13.2275 17.1875 14.4375C15.9775 15.6475 14.4467 17.0867 12.595 18.755L11 20.185ZM11 17.215C12.76 15.6383 14.2083 14.2863 15.345 13.1588C16.4817 12.0313 17.38 11.0504 18.04 10.2163C18.7 9.38208 19.1583 8.63958 19.415 7.98875C19.6717 7.33792 19.8 6.69167 19.8 6.05C19.8 4.95 19.4333 4.03333 18.7 3.3C17.9667 2.56667 17.05 2.2 15.95 2.2C15.0883 2.2 14.2908 2.44292 13.5575 2.92875C12.8242 3.41458 12.32 4.03333 12.045 4.785H9.955C9.68 4.03333 9.17583 3.41458 8.4425 2.92875C7.70917 2.44292 6.91167 2.2 6.05 2.2C4.95 2.2 4.03333 2.56667 3.3 3.3C2.56667 4.03333 2.2 4.95 2.2 6.05C2.2 6.69167 2.32833 7.33792 2.585 7.98875C2.84167 8.63958 3.3 9.38208 3.96 10.2163C4.62 11.0504 5.51833 12.0313 6.655 13.1588C7.79167 14.2863 9.24 15.6383 11 17.215Z" fill="#B21C1C"/>
</g>
<defs>
<clipPath id="clip0_683_18873">
<rect width="22" height="20.185" fill="white"/>
</clipPath>
</defs>
</svg>
