<svg width="20" height="19" viewBox="0 0 20 19" fill="none" xmlns="http://www.w3.org/2000/svg">
<mask id="mask0_0_19" style="mask-type:alpha" maskUnits="userSpaceOnUse" x="-2" y="-3" width="24" height="25">
<rect x="-1.5" y="-2.1499" width="23" height="23" fill="#D9D9D9" stroke="#B21C1C"/>
</mask>
<g mask="url(#mask0_0_19)">
<path d="M14.9179 12.4179C13.8346 13.5012 12.457 14.7966 10.7819 16.3059C10.7815 16.3063 10.7811 16.3067 10.7806 16.3071L10 17.0069L9.21937 16.3071C9.21894 16.3067 9.21851 16.3063 9.21808 16.3059C7.54298 14.7966 6.16543 13.5012 5.08211 12.4179C4.00337 11.3392 3.16423 10.3893 2.55274 9.56618C1.94048 8.74198 1.54532 8.02702 1.33069 7.41774C1.10942 6.78961 1 6.15188 1 5.5C1 4.18232 1.43081 3.1334 2.28211 2.28211C3.1334 1.43081 4.18232 1 5.5 1C6.22046 1 6.9007 1.15127 7.55106 1.45569C8.20298 1.76084 8.76314 2.18892 9.23806 2.74765L10 3.64405L10.7619 2.74765C11.2369 2.18892 11.797 1.76084 12.4489 1.45569C13.0993 1.15127 13.7795 1 14.5 1C15.8177 1 16.8666 1.43081 17.7179 2.28211C18.5692 3.1334 19 4.18232 19 5.5C19 6.15188 18.8906 6.78961 18.6693 7.41774C18.4547 8.02702 18.0595 8.74198 17.4473 9.56618C16.8358 10.3893 15.9966 11.3392 14.9179 12.4179Z" stroke="#B21C1C" stroke-width="2"/>
</g>
</svg>
