<svg width="27" height="31" viewBox="0 0 27 31" fill="none" xmlns="http://www.w3.org/2000/svg">
<mask id="mask0_683_18888" style="mask-type:alpha" maskUnits="userSpaceOnUse" x="-8" y="-8" width="42" height="47">
<rect x="-7.0058" y="-7.75013" width="40.0864" height="46.5001" fill="#D9D9D9"/>
</mask>
<g mask="url(#mask0_683_18888)">
<path d="M11.7263 31.0001C11.253 31.0001 10.8563 30.8144 10.5362 30.443C10.2161 30.0717 10.056 29.6115 10.056 29.0626V17.4375L0.368441 3.10001C-0.0491255 2.45417 -0.11176 1.77605 0.180536 1.06563C0.472833 0.355209 0.980872 0 1.70465 0H25.0884C25.8122 0 26.3202 0.355209 26.6125 1.06563C26.9048 1.77605 26.8422 2.45417 26.4246 3.10001L16.737 17.4375V29.0626C16.737 29.6115 16.577 30.0717 16.2568 30.443C15.9367 30.8144 15.54 31.0001 15.0668 31.0001H11.7263ZM13.3965 16.0813L21.6643 3.87501H5.1287L13.3965 16.0813Z" fill="#1C1B1F"/>
</g>
</svg>
