<svg width="21" height="19" viewBox="0 0 21 19" fill="none" xmlns="http://www.w3.org/2000/svg">
<path d="M10.2733 9.49992C9.33156 9.49992 8.56107 8.78742 8.56107 7.91658C8.56107 7.04575 9.33156 6.33325 10.2733 6.33325C11.215 6.33325 11.9855 7.04575 11.9855 7.91658C11.9855 8.78742 11.215 9.49992 10.2733 9.49992ZM15.4099 8.07492C15.4099 5.20117 13.1412 3.16659 10.2733 3.16659C7.40533 3.16659 5.13665 5.20117 5.13665 8.07492C5.13665 9.92742 6.80605 12.3816 10.2733 15.3108C13.7405 12.3816 15.4099 9.92742 15.4099 8.07492ZM10.2733 1.58325C13.8689 1.58325 17.1221 4.13242 17.1221 8.07492C17.1221 10.7033 14.8363 13.8145 10.2733 17.4166C5.71024 13.8145 3.42444 10.7033 3.42444 8.07492C3.42444 4.13242 6.67764 1.58325 10.2733 1.58325Z" fill="black"/>
</svg>
