<svg width="27" height="29" viewBox="0 0 27 29" fill="none" xmlns="http://www.w3.org/2000/svg">
<path d="M13.3308 2.41669C7.19349 2.41669 2.22359 7.83003 2.22359 14.5C2.22359 21.17 7.19349 26.5834 13.3308 26.5834C19.4793 26.5834 24.4603 21.17 24.4603 14.5C24.4603 7.83003 19.4793 2.41669 13.3308 2.41669ZM13.3419 24.1667C8.42763 24.1667 4.44726 19.8409 4.44726 14.5C4.44726 9.1592 8.42763 4.83336 13.3419 4.83336C18.2562 4.83336 22.2366 9.1592 22.2366 14.5C22.2366 19.8409 18.2562 24.1667 13.3419 24.1667ZM13.8979 8.45836H12.2301V15.7084L18.0672 19.5146L18.9011 18.0284L13.8979 14.8021V8.45836Z" fill="black"/>
</svg>
