<svg width="27" height="26" viewBox="0 0 27 26" fill="none" xmlns="http://www.w3.org/2000/svg">
<path d="M13.457 2.1667C9.11706 2.1667 5.60702 5.55753 5.60702 9.75004C5.60702 15.4375 13.457 23.8334 13.457 23.8334C13.457 23.8334 21.3069 15.4375 21.3069 9.75004C21.3069 5.55753 17.7969 2.1667 13.457 2.1667ZM7.84986 9.75004C7.84986 6.76004 10.3618 4.33337 13.457 4.33337C16.5521 4.33337 19.0641 6.76004 19.0641 9.75004C19.0641 12.87 15.8344 17.5392 13.457 20.4534C11.1244 17.5609 7.84986 12.8375 7.84986 9.75004Z" fill="black"/>
<path d="M13.457 12.4584C15.0053 12.4584 16.2605 11.2458 16.2605 9.75004C16.2605 8.25427 15.0053 7.0417 13.457 7.0417C11.9086 7.0417 10.6534 8.25427 10.6534 9.75004C10.6534 11.2458 11.9086 12.4584 13.457 12.4584Z" fill="black"/>
</svg>
