<svg width="15" height="19" viewBox="0 0 15 19" fill="none" xmlns="http://www.w3.org/2000/svg">
<path d="M7.5 9.375C6.46875 9.375 5.625 8.53125 5.625 7.5C5.625 6.46875 6.46875 5.625 7.5 5.625C8.53125 5.625 9.375 6.46875 9.375 7.5C9.375 8.53125 8.53125 9.375 7.5 9.375ZM13.125 7.6875C13.125 4.28437 10.6406 1.875 7.5 1.875C4.35938 1.875 1.875 4.28437 1.875 7.6875C1.875 9.88125 3.70312 12.7875 7.5 16.2563C11.2969 12.7875 13.125 9.88125 13.125 7.6875ZM7.5 0C11.4375 0 15 3.01875 15 7.6875C15 10.8 12.4969 14.4844 7.5 18.75C2.50313 14.4844 0 10.8 0 7.6875C0 3.01875 3.5625 0 7.5 0Z" fill="black"/>
</svg>
