<svg width="16" height="16" viewBox="0 0 16 16" fill="none" xmlns="http://www.w3.org/2000/svg">
<mask id="mask0_603_10010" style="mask-type:alpha" maskUnits="userSpaceOnUse" x="-4" y="-4" width="24" height="24">
<path d="M-4 -4H20V10C20 15.5228 15.5228 20 10 20H6C0.477153 20 -4 15.5228 -4 10V-4Z" fill="#D9D9D9"/>
</mask>
<g mask="url(#mask0_603_10010)">
<mask id="mask1_603_10010" style="mask-type:alpha" maskUnits="userSpaceOnUse" x="-4" y="-4" width="24" height="24">
<path d="M-4 -4H20V10C20 15.5228 15.5228 20 10 20H6C0.477153 20 -4 15.5228 -4 10V-4Z" fill="#D9D9D9"/>
</mask>
<g mask="url(#mask1_603_10010)">
<path d="M3.825 9L9.425 14.6L8 16L0 8L8 0L9.425 1.4L3.825 7H16V9H3.825Z" fill="#D9D9D9"/>
</g>
</g>
</svg>
