<svg width="167" height="167" viewBox="0 0 167 167" fill="none" xmlns="http://www.w3.org/2000/svg">
<path d="M32.1475 126.085C39.245 120.658 47.1775 116.378 55.945 113.247C64.7125 110.116 73.8975 108.55 83.5 108.55C93.1025 108.55 102.288 110.116 111.055 113.247C119.823 116.378 127.755 120.658 134.853 126.085C139.723 120.379 143.516 113.908 146.229 106.671C148.943 99.4346 150.3 91.7108 150.3 83.5C150.3 64.9908 143.794 49.2302 130.782 36.2181C117.77 23.206 102.009 16.7 83.5 16.7C64.9908 16.7 49.2302 23.206 36.2181 36.2181C23.206 49.2302 16.7 64.9908 16.7 83.5C16.7 91.7108 18.0569 99.4346 20.7706 106.671C23.4844 113.908 27.2767 120.379 32.1475 126.085ZM83.5 91.85C75.2892 91.85 68.3656 89.0319 62.7294 83.3956C57.0931 77.7594 54.275 70.8358 54.275 62.625C54.275 54.4142 57.0931 47.4906 62.7294 41.8544C68.3656 36.2181 75.2892 33.4 83.5 33.4C91.7108 33.4 98.6344 36.2181 104.271 41.8544C109.907 47.4906 112.725 54.4142 112.725 62.625C112.725 70.8358 109.907 77.7594 104.271 83.3956C98.6344 89.0319 91.7108 91.85 83.5 91.85ZM83.5 167C71.9492 167 61.0942 164.808 50.935 160.424C40.7758 156.041 31.9388 150.091 24.4238 142.576C16.9088 135.061 10.9594 126.224 6.57563 116.065C2.19188 105.906 0 95.0509 0 83.5C0 71.9492 2.19188 61.0942 6.57563 50.935C10.9594 40.7758 16.9088 31.9388 24.4238 24.4238C31.9388 16.9088 40.7758 10.9594 50.935 6.57563C61.0942 2.19188 71.9492 0 83.5 0C95.0509 0 105.906 2.19188 116.065 6.57563C126.224 10.9594 135.061 16.9088 142.576 24.4238C150.091 31.9388 156.041 40.7758 160.424 50.935C164.808 61.0942 167 71.9492 167 83.5C167 95.0509 164.808 105.906 160.424 116.065C156.041 126.224 150.091 135.061 142.576 142.576C135.061 150.091 126.224 156.041 116.065 160.424C105.906 164.808 95.0509 167 83.5 167ZM83.5 150.3C90.8759 150.3 97.8342 149.221 104.375 147.064C110.916 144.907 116.9 141.811 122.328 137.775C116.9 133.739 110.916 130.643 104.375 128.486C97.8342 126.329 90.8759 125.25 83.5 125.25C76.1242 125.25 69.1659 126.329 62.625 128.486C56.0842 130.643 50.1 133.739 44.6725 137.775C50.1 141.811 56.0842 144.907 62.625 147.064C69.1659 149.221 76.1242 150.3 83.5 150.3ZM83.5 75.15C87.1184 75.15 90.1104 73.9671 92.4763 71.6013C94.8421 69.2354 96.025 66.2433 96.025 62.625C96.025 59.0067 94.8421 56.0146 92.4763 53.6488C90.1104 51.2829 87.1184 50.1 83.5 50.1C79.8817 50.1 76.8896 51.2829 74.5238 53.6488C72.1579 56.0146 70.975 59.0067 70.975 62.625C70.975 66.2433 72.1579 69.2354 74.5238 71.6013C76.8896 73.9671 79.8817 75.15 83.5 75.15Z" fill="#1C1B1F"/>
</svg>
